<svg width="23" height="21" viewBox="0 0 23 21" fill="none" xmlns="http://www.w3.org/2000/svg">
<path d="M18.8788 14.6472C17.5838 14.6472 16.496 15.5278 16.1704 16.7192H10.0432C9.74719 15.624 8.79999 14.7952 7.65299 14.6694L7.49019 13.7666H21.0174L22.8304 3.66559H5.62539L5.11479 0.875793H0.437988V2.35579H3.87899L6.18039 14.8988C5.19619 15.3354 4.51539 16.3196 4.51539 17.4666C4.51539 19.0132 5.77339 20.2786 7.32739 20.2786C8.62239 20.2786 9.71019 19.398 10.0358 18.2066H16.163C16.4886 19.398 17.5838 20.2786 18.8714 20.2786C20.418 20.2786 21.6834 19.0206 21.6834 17.4666C21.6834 15.9126 20.4254 14.6472 18.8788 14.6472ZM21.047 5.13819L19.7668 12.2792H7.20899L5.89919 5.13819H21.047ZM7.32739 18.7912C6.59479 18.7912 5.99539 18.1918 5.99539 17.4592C5.99539 16.7266 6.59479 16.1272 7.32739 16.1272C8.05999 16.1272 8.65939 16.7266 8.65939 17.4592C8.65939 18.1918 8.05999 18.7912 7.32739 18.7912ZM18.8788 18.7912C18.1462 18.7912 17.5468 18.1918 17.5468 17.4592C17.5468 16.7266 18.1462 16.1272 18.8788 16.1272C19.6114 16.1272 20.2108 16.7266 20.2108 17.4592C20.2108 18.1918 19.6114 18.7912 18.8788 18.7912Z" fill="#3C454F"/>
</svg>
