<svg width="36" height="37" viewBox="0 0 36 37" fill="none" xmlns="http://www.w3.org/2000/svg">
<g clip-path="url(#clip0_1_429)">
<path d="M31.4205 12.7277C31.4054 11.5916 31.1927 10.4669 30.792 9.4037C30.4445 8.50693 29.9138 7.6925 29.2338 7.01245C28.5537 6.33239 27.7393 5.80168 26.8425 5.4542C25.793 5.06023 24.6843 4.84721 23.5635 4.8242C22.1205 4.7597 21.663 4.7417 18 4.7417C14.337 4.7417 13.8675 4.7417 12.435 4.8242C11.3148 4.84738 10.2065 5.0604 9.15751 5.4542C8.2606 5.80143 7.44605 6.33207 6.76596 7.01215C6.08588 7.69223 5.55525 8.50679 5.20801 9.4037C4.81326 10.4524 4.6007 11.5609 4.57951 12.6812C4.51501 14.1257 4.49551 14.5832 4.49551 18.2462C4.49551 21.9092 4.49551 22.3772 4.57951 23.8112C4.60201 24.9332 4.81351 26.0402 5.20801 27.0917C5.55583 27.9883 6.08686 28.8026 6.76717 29.4824C7.44748 30.1622 8.26211 30.6926 9.15901 31.0397C10.2052 31.4495 11.3136 31.6778 12.4365 31.7147C13.881 31.7792 14.3385 31.7987 18.0015 31.7987C21.6645 31.7987 22.134 31.7987 23.5665 31.7147C24.6872 31.6926 25.7961 31.4801 26.8455 31.0862C27.7421 30.7383 28.5563 30.2075 29.2363 29.5275C29.9163 28.8475 30.4471 28.0332 30.795 27.1367C31.1895 26.0867 31.401 24.9797 31.4235 23.8562C31.488 22.4132 31.5075 21.9557 31.5075 18.2912C31.5045 14.6282 31.5045 14.1632 31.4205 12.7277ZM17.991 25.1732C14.16 25.1732 11.0565 22.0697 11.0565 18.2387C11.0565 14.4077 14.16 11.3042 17.991 11.3042C19.8302 11.3042 21.594 12.0348 22.8944 13.3353C24.1949 14.6357 24.9255 16.3996 24.9255 18.2387C24.9255 20.0778 24.1949 21.8417 22.8944 23.1421C21.594 24.4426 19.8302 25.1732 17.991 25.1732ZM25.2015 12.6647C24.306 12.6647 23.5845 11.9417 23.5845 11.0477C23.5845 10.8355 23.6263 10.6253 23.7075 10.4292C23.7888 10.2331 23.9078 10.0549 24.0579 9.90484C24.208 9.75476 24.3862 9.6357 24.5823 9.55448C24.7783 9.47325 24.9885 9.43145 25.2008 9.43145C25.413 9.43145 25.6232 9.47325 25.8193 9.55448C26.0154 9.6357 26.1935 9.75476 26.3436 9.90484C26.4937 10.0549 26.6128 10.2331 26.694 10.4292C26.7752 10.6253 26.817 10.8355 26.817 11.0477C26.817 11.9417 26.094 12.6647 25.2015 12.6647Z" fill="#849ACD"/>
<path d="M17.991 22.7429C20.4788 22.7429 22.4955 20.7262 22.4955 18.2384C22.4955 15.7506 20.4788 13.7339 17.991 13.7339C15.5032 13.7339 13.4865 15.7506 13.4865 18.2384C13.4865 20.7262 15.5032 22.7429 17.991 22.7429Z" fill="#849ACD"/>
</g>
<defs>
<clipPath id="clip0_1_429">
<rect width="36" height="36" fill="white" transform="translate(0 0.27002)"/>
</clipPath>
</defs>
</svg>
