<svg width="21" height="30" viewBox="0 0 21 30" fill="none" xmlns="http://www.w3.org/2000/svg">
<path d="M10.5 0.867676C4.7872 0.867676 0.1474 5.51488 0.1474 11.2203C0.1474 15.0091 1.8124 19.1235 5.1054 23.4525C7.5252 26.6419 9.9154 28.7139 10.019 28.7953L10.5 29.2097L10.981 28.8027C11.0846 28.7139 13.4748 26.6789 15.902 23.5117C17.3302 21.6395 18.4772 19.7673 19.2986 17.9321C20.342 15.6085 20.8674 13.3515 20.8674 11.2203C20.8526 5.50748 16.2128 0.867676 10.5 0.867676ZM14.7402 22.5867C13.0382 24.8141 11.3214 26.4939 10.5074 27.2413C9.6934 26.4791 7.9692 24.7771 6.2672 22.5349C4.1508 19.7451 1.6274 15.5197 1.6274 11.2277C1.6274 6.32888 5.6086 2.34768 10.5 2.34768C15.3914 2.34768 19.3726 6.32888 19.3726 11.2203C19.3726 15.5937 16.8566 19.8117 14.7402 22.5867Z" fill="#2e3192"/>
<path d="M10.5 6.59521C8.10239 6.59521 6.15619 8.54142 6.15619 10.939C6.15619 13.3366 8.10239 15.2828 10.5 15.2828C12.8976 15.2828 14.8438 13.3366 14.8438 10.939C14.8438 8.54142 12.8976 6.59521 10.5 6.59521ZM10.5 13.8028C8.92379 13.8028 7.63619 12.5152 7.63619 10.939C7.63619 9.36282 8.92379 8.07522 10.5 8.07522C12.0762 8.07522 13.3638 9.36282 13.3638 10.939C13.3638 12.5152 12.0762 13.8028 10.5 13.8028Z" fill="#2e3192"/>
</svg>
