<svg width="14" height="19" viewBox="0 0 14 19" fill="none" xmlns="http://www.w3.org/2000/svg">
<path d="M6.87999 0.216003C3.17439 0.216003 0.164795 3.2304 0.164795 6.9312C0.164795 9.3888 1.2448 12.0576 3.3808 14.8656C4.9504 16.9344 6.50079 18.2784 6.56799 18.3312L6.87999 18.6L7.19199 18.336C7.25919 18.2784 8.80959 16.9584 10.384 14.904C11.3104 13.6896 12.0544 12.4752 12.5872 11.2848C13.264 9.7776 13.6048 8.3136 13.6048 6.9312C13.5952 3.2256 10.5856 0.216003 6.87999 0.216003ZM9.63039 14.304C8.52639 15.7488 7.41279 16.8384 6.88479 17.3232C6.35679 16.8288 5.2384 15.7248 4.1344 14.2704C2.7616 12.4608 1.1248 9.72 1.1248 6.936C1.1248 3.7584 3.70719 1.176 6.87999 1.176C10.0528 1.176 12.6352 3.7584 12.6352 6.9312C12.6352 9.768 11.0032 12.504 9.63039 14.304Z" fill="#3C454F"/>
<path d="M6.88001 3.93121C5.32481 3.93121 4.06241 5.19361 4.06241 6.74881C4.06241 8.30401 5.32481 9.56641 6.88001 9.56641C8.43521 9.56641 9.69761 8.30401 9.69761 6.74881C9.69761 5.19361 8.43521 3.93121 6.88001 3.93121ZM6.88001 8.60641C5.85761 8.60641 5.02241 7.77121 5.02241 6.74881C5.02241 5.72641 5.85761 4.89121 6.88001 4.89121C7.90241 4.89121 8.73761 5.72641 8.73761 6.74881C8.73761 7.77121 7.90241 8.60641 6.88001 8.60641Z" fill="#3C454F"/>
</svg>
