<svg width="24" height="20" viewBox="0 0 24 20" fill="none" xmlns="http://www.w3.org/2000/svg">
<path d="M6.916 19.729H17.082V0.179001H6.916V19.729ZM7.836 1.099H16.162V18.809H7.836V1.099Z" fill="#6B7685"/>
<path d="M11.999 15.244C11.148 15.244 10.458 15.934 10.458 16.785C10.458 17.636 11.148 18.326 11.999 18.326C12.85 18.326 13.54 17.636 13.54 16.785C13.54 15.934 12.85 15.244 11.999 15.244ZM11.999 17.406C11.6586 17.406 11.378 17.1254 11.378 16.785C11.378 16.4446 11.6586 16.164 11.999 16.164C12.3394 16.164 12.62 16.4446 12.62 16.785C12.62 17.1254 12.3394 17.406 11.999 17.406Z" fill="#6B7685"/>
<path d="M20.095 9.701C20.095 8.6384 19.5246 7.6448 18.6 7.1112L18.209 7.7874C18.8898 8.183 19.313 8.9144 19.313 9.701C19.313 10.4922 18.899 11.2052 18.209 11.6054L18.6 12.2816C19.52 11.748 20.095 10.759 20.095 9.701Z" fill="#6B7685"/>
<path d="M21.6912 9.7056C21.6912 8.0726 20.8126 6.55 19.3958 5.7312L19.0048 6.4074C20.1778 7.0882 20.9092 8.3486 20.9092 9.7056C20.9092 11.0718 20.1962 12.3 19.0048 12.99L19.3958 13.6662C20.8126 12.8474 21.6912 11.3294 21.6912 9.7056Z" fill="#6B7685"/>
<path d="M20.2468 4.3696L19.8558 5.0458C21.5164 6.0072 22.5422 7.792 22.5422 9.7056C22.5422 11.6376 21.5348 13.3718 19.8512 14.347L20.2422 15.0232C21.1622 14.4896 21.935 13.7306 22.4732 12.8198C23.0298 11.8814 23.3242 10.805 23.3242 9.7056C23.3242 7.516 22.1466 5.469 20.2468 4.3696Z" fill="#6B7685"/>
<path d="M5.9086 7.5114L5.5176 6.83521C4.5976 7.36881 4.0226 8.35781 4.0226 9.41581C4.0226 10.4784 4.593 11.472 5.5176 12.0056L5.9086 11.3294C5.2278 10.9338 4.8046 10.2024 4.8046 9.41581C4.8 8.62461 5.214 7.9116 5.9086 7.5114Z" fill="#6B7685"/>
<path d="M3.20841 9.4158C3.20841 8.0496 3.92141 6.8214 5.11281 6.1314L4.72181 5.4552C3.30501 6.274 2.42641 7.792 2.42641 9.4158C2.42641 11.0488 3.30501 12.5714 4.72181 13.3902L5.11281 12.714C3.93521 12.0332 3.20841 10.7682 3.20841 9.4158Z" fill="#6B7685"/>
<path d="M1.5708 9.4112C1.5708 7.4792 2.5782 5.745 4.2618 4.7698L3.8708 4.0936C2.9508 4.6272 2.178 5.3862 1.6398 6.297C1.0832 7.2354 0.788803 8.3118 0.788803 9.4112C0.788803 11.6008 1.9664 13.6478 3.8662 14.7472L4.2572 14.071C2.6012 13.1096 1.5708 11.3248 1.5708 9.4112Z" fill="#6B7685"/>
</svg>
