<svg width="37" height="32" viewBox="0 0 37 32" fill="none" xmlns="http://www.w3.org/2000/svg">
<path d="M10.064 31.451H26.418V0.000976562H10.064V31.451ZM11.544 1.48098H24.938V29.971H11.544V1.48098Z" fill="white"/>
<path d="M18.241 24.2358C16.872 24.2358 15.762 25.3458 15.762 26.7148C15.762 28.0838 16.872 29.1938 18.241 29.1938C19.61 29.1938 20.72 28.0838 20.72 26.7148C20.72 25.3458 19.61 24.2358 18.241 24.2358ZM18.241 27.7138C17.6934 27.7138 17.242 27.2624 17.242 26.7148C17.242 26.1672 17.6934 25.7158 18.241 25.7158C18.7886 25.7158 19.24 26.1672 19.24 26.7148C19.24 27.2624 18.7886 27.7138 18.241 27.7138Z" fill="white"/>
<path d="M31.265 15.319C31.265 13.6096 30.3474 12.0112 28.86 11.1528L28.231 12.2406C29.3262 12.877 30.007 14.0536 30.007 15.319C30.007 16.5918 29.341 17.7388 28.231 18.3826L28.86 19.4704C30.34 18.612 31.265 17.021 31.265 15.319Z" fill="white"/>
<path d="M33.8328 15.3262C33.8328 12.6992 32.4194 10.2498 30.1402 8.93262L29.5112 10.0204C31.3982 11.1156 32.5748 13.1432 32.5748 15.3262C32.5748 17.524 31.4278 19.4998 29.5112 20.6098L30.1402 21.6976C32.4194 20.3804 33.8328 17.9384 33.8328 15.3262Z" fill="white"/>
<path d="M31.5092 6.74219L30.8802 7.82999C33.5516 9.37659 35.2018 12.2478 35.2018 15.3262C35.2018 18.4342 33.5812 21.224 30.8728 22.7928L31.5018 23.8806C32.9818 23.0222 34.225 21.8012 35.0908 20.336C35.9862 18.8264 36.4598 17.0948 36.4598 15.3262C36.4598 11.8038 34.5654 8.51079 31.5092 6.74219Z" fill="white"/>
<path d="M8.44342 11.7968L7.81442 10.709C6.33442 11.5674 5.40942 13.1584 5.40942 14.8604C5.40942 16.5698 6.32702 18.1682 7.81442 19.0266L8.44342 17.9388C7.34822 17.3024 6.66742 16.1258 6.66742 14.8604C6.66002 13.5876 7.32602 12.4406 8.44342 11.7968Z" fill="white"/>
<path d="M4.09961 14.8602C4.09961 12.6624 5.24661 10.6866 7.16321 9.57657L6.53421 8.48877C4.25501 9.80597 2.84161 12.248 2.84161 14.8602C2.84161 17.4872 4.25501 19.9366 6.53421 21.2538L7.16321 20.166C5.26881 19.0708 4.09961 17.0358 4.09961 14.8602Z" fill="white"/>
<path d="M1.46521 14.8527C1.46521 11.7447 3.08581 8.95494 5.79421 7.38614L5.16521 6.29834C3.68521 7.15674 2.44201 8.37774 1.57621 9.84294C0.680814 11.3525 0.207214 13.0841 0.207214 14.8527C0.207214 18.3751 2.10161 21.6681 5.15781 23.4367L5.78681 22.3489C3.12281 20.8023 1.46521 17.9311 1.46521 14.8527Z" fill="white"/>
</svg>
