<svg version="1.1" id="Capa_1" xmlns="http://www.w3.org/2000/svg" xmlns:xlink="http://www.w3.org/1999/xlink" x="0px" y="0px" viewBox="0 0 512 512" style="enable-background:new 0 0 512 512;" xml:space="preserve">
<style type="text/css">
.st0{fill:#3C454F;}
</style>
<g transform="matrix(-1 0 0 1 56.966 0)">
<path class="st0" d="M40.6,466.4L-81.2,339.6c31.3-37.2,48.5-84.1,48.5-132.9C-32.8,92.7-125.5,0-239.5,0s-206.7,92.7-206.7,206.7
s92.7,206.7,206.7,206.7c42.8,0,83.6-12.9,118.4-37.4L1.7,503.7c5.1,5.3,12,8.3,19.4,8.3c7,0,13.6-2.7,18.7-7.5
C50.6,494.2,50.9,477.1,40.6,466.4z M-239.5,53.9c84.3,0,152.8,68.5,152.8,152.8s-68.5,152.8-152.8,152.8S-392.3,291-392.3,206.7
S-323.7,53.9-239.5,53.9z"></path>
</g>
</svg>