<svg width="18" height="18" viewBox="0 0 18 18" fill="none" xmlns="http://www.w3.org/2000/svg">
<path d="M1.17311 15.9843L5.21914 11.7762C4.17884 10.5396 3.60885 8.98359 3.60885 7.36374C3.60885 3.57913 6.68798 0.5 10.4726 0.5C14.2572 0.5 17.3363 3.57913 17.3363 7.36374C17.3363 11.1484 14.2572 14.2275 10.4726 14.2275C9.0518 14.2275 7.69785 13.799 6.54026 12.9854L2.4635 17.2255C2.2931 17.4024 2.06391 17.5 1.81831 17.5C1.58583 17.5 1.3653 17.4114 1.19788 17.2502C0.842163 16.9079 0.830823 16.3403 1.17311 15.9843ZM10.4726 2.29054C7.67517 2.29054 5.39939 4.56632 5.39939 7.36374C5.39939 10.1612 7.67517 12.4369 10.4726 12.4369C13.27 12.4369 15.5458 10.1612 15.5458 7.36374C15.5458 4.56632 13.27 2.29054 10.4726 2.29054Z" fill="#BFC6CE"/>
</svg>
