<svg width="31" height="22" viewBox="0 0 31 22" fill="none" xmlns="http://www.w3.org/2000/svg">
<path d="M30.3895 4.07453C30.2187 3.44063 29.8848 2.86254 29.4211 2.39778C28.9574 1.93303 28.38 1.59782 27.7465 1.42553C25.3975 0.780531 16 0.770031 16 0.770031C16 0.770031 6.60401 0.759531 4.25351 1.37603C3.62039 1.55625 3.04424 1.8962 2.58035 2.36323C2.11647 2.83027 1.78043 3.40871 1.60451 4.04303C0.985006 6.39203 0.979006 11.264 0.979006 11.264C0.979006 11.264 0.973006 16.16 1.58801 18.485C1.93301 19.7705 2.94551 20.786 4.23251 21.1325C6.60551 21.7775 15.9775 21.788 15.9775 21.788C15.9775 21.788 25.375 21.7985 27.724 21.1835C28.3577 21.0115 28.9356 20.6771 29.4005 20.2133C29.8653 19.7495 30.2011 19.1724 30.3745 18.539C30.9955 16.1915 31 11.321 31 11.321C31 11.321 31.03 6.42353 30.3895 4.07453ZM12.994 15.7775L13.0015 6.77753L20.812 11.285L12.994 15.7775Z" fill="#849ACD"/>
</svg>
