<svg xmlns="http://www.w3.org/2000/svg" xmlns:xlink="http://www.w3.org/1999/xlink" version="1.1" id="Layer_7" x="0px" y="0px" viewBox="0 0 500 500" style="enable-background:new 0 0 500 500;" xml:space="preserve">
<style type="text/css">
	.st0{fill:#FFFFFF;}
</style>
<path class="st0" d="M364.3,252L470,146.3L358.7,34.9L253,140.6L142.3,30L30.9,141.4l111.4,111.4L37.6,357.4L149,468.7L253.7,364  l59.7,59.7L441.9,441l-17.2-128.6L364.3,252z M362.6,346.3L171.7,155.4l33.8-33.8l190.9,190.9L362.6,346.3z M157.6,169.5  l190.9,190.9l-35.1,35.1L122.5,204.6L157.6,169.5z M406.9,330.3l5,37.4L368.6,411l-37.4-5L406.9,330.3z M358.7,63.2l83.1,83.1  l-25.5,25.5l-41.5-41.5l-14.1,14.1l41.5,41.5L376,212.1l-41.5-41.5l-14.1,14.1l41.5,41.5l-11.6,11.6l-83.1-83.1L358.7,63.2z   M142.3,58.3l49.1,49.1l-83.1,83.1l-49.1-49.1L142.3,58.3z M228.2,361.3l-41.5-41.5l-14.1,14.1l41.5,41.5l-25.8,25.8l-41.5-41.5  l-14.1,14.1l41.5,41.5L149,440.5l-83.1-83.1l90.5-90.5l83.1,83.1L228.2,361.3z M393.6,414.3l21.7-21.7l3.3,25L393.6,414.3z"/>
</svg>