<svg xmlns="http://www.w3.org/2000/svg" width="35" height="35" viewBox="0 0 35 35" fill="none">
  <path d="M17.4868 0.0637817L0.184814 17.374L17.495 34.6842L34.797 17.374L17.4868 0.0637817ZM17.536 16.3408L16.0026 14.8074L22.9562 7.85378L24.4896 9.38718L17.536 16.3408ZM14.8382 13.643L13.2392 12.044L20.1928 5.09038L21.7918 6.68938L14.8382 13.643ZM16.3716 17.5052L14.9694 18.9074L7.96661 11.9046L9.36881 10.5024L16.3716 17.5052ZM13.805 20.0718L12.206 21.6708L5.21141 14.668L6.81041 13.069L13.805 20.0718ZM17.536 18.6614L19.0694 20.1948L12.1978 27.0664L10.6644 25.533L17.536 18.6614ZM20.2338 21.3592L21.8328 22.9582L14.9612 29.8298L13.3622 28.2308L20.2338 21.3592ZM18.6922 17.5052L20.365 15.8324L27.1956 22.663L25.5228 24.3358L18.6922 17.5052ZM21.5212 14.6762L23.1202 13.0772L29.9508 19.9078L28.3518 21.5068L21.5212 14.6762ZM24.2764 11.921L25.6458 10.5516L32.4764 17.3822L31.107 18.7516L24.2764 11.921ZM19.0366 3.93418L12.083 10.8878L10.5332 9.33798L17.4868 2.38438L19.0366 3.93418ZM4.05521 15.8242L11.058 22.827L9.50001 24.3768L2.50541 17.374L4.05521 15.8242ZM16.1174 30.986L22.989 24.1144L24.3666 25.492L17.495 32.3636L16.1174 30.986Z" fill="white"/>
</svg>