<svg xmlns="http://www.w3.org/2000/svg" width="42" height="42" viewBox="0 0 42 42" fill="none">
  <g clip-path="url(#clip0_1_39)">
    <path d="M41.268 22.3006L36.7908 12.436H29.501V8.41797H3.50703V27.77H4.92563L4.88463 30.476H7.39383C7.77923 32.526 9.58323 34.084 11.748 34.084C13.9128 34.084 15.7168 32.526 16.1022 30.476H30.239C30.6244 32.526 32.4284 34.084 34.5932 34.084C36.758 34.084 38.562 32.526 38.9474 30.476H41.2762V22.3006H41.268ZM39.382 22.112H32.207V16.536H36.8482L39.382 22.112ZM5.14703 10.058H27.861V26.13H14.4294C14.4212 26.1218 14.4048 26.1136 14.3966 26.1054C14.372 26.089 14.3556 26.0726 14.331 26.0562C14.2982 26.0316 14.2654 26.0152 14.2408 25.9906C14.2162 25.9742 14.1998 25.9578 14.1752 25.9496C14.1424 25.925 14.1096 25.9086 14.0768 25.8922C14.0522 25.8758 14.0358 25.8676 14.0112 25.8512C13.9784 25.8348 13.9456 25.8102 13.9046 25.7938C13.88 25.7856 13.8636 25.7692 13.839 25.761C13.798 25.7364 13.7652 25.72 13.7242 25.7036C13.7078 25.6954 13.6914 25.6872 13.675 25.679C13.5602 25.6216 13.4454 25.5724 13.3224 25.5314C13.306 25.5232 13.2896 25.515 13.265 25.515C13.224 25.4986 13.183 25.4822 13.142 25.474C13.1174 25.4658 13.0928 25.4576 13.0764 25.4494C13.0354 25.4412 13.0026 25.4248 12.9616 25.4166C12.937 25.4084 12.9124 25.4002 12.8878 25.4002C12.855 25.392 12.814 25.3838 12.7812 25.3756C12.7566 25.3674 12.732 25.3674 12.7074 25.3592C12.6746 25.351 12.6336 25.3428 12.6008 25.3346C12.5762 25.3264 12.5516 25.3264 12.5188 25.3182C12.4778 25.31 12.445 25.3018 12.404 25.3018C12.3794 25.3018 12.3548 25.2936 12.3302 25.2936C12.2892 25.2854 12.2564 25.2854 12.2154 25.2772C12.1908 25.2772 12.1662 25.269 12.1416 25.269C12.1006 25.269 12.0596 25.2608 12.0104 25.2608C11.9858 25.2608 11.9694 25.2608 11.9448 25.2608C11.8792 25.2608 11.8136 25.2526 11.7562 25.2526C11.6988 25.2526 11.625 25.2526 11.5676 25.2608C11.543 25.2608 11.5266 25.2608 11.502 25.2608C11.461 25.2608 11.42 25.269 11.3708 25.269C11.3462 25.269 11.3216 25.2772 11.297 25.2772C11.256 25.2772 11.2232 25.2854 11.1822 25.2936C11.1576 25.2936 11.133 25.3018 11.1084 25.3018C11.0674 25.31 11.0346 25.31 10.9936 25.3182C10.969 25.3264 10.9444 25.3264 10.9116 25.3346C10.8788 25.3428 10.8378 25.351 10.805 25.3592C10.7804 25.3674 10.7558 25.3674 10.7312 25.3756C10.6984 25.3838 10.6574 25.392 10.6246 25.4002C10.6 25.4084 10.5754 25.4166 10.5508 25.4166C10.5098 25.4248 10.477 25.4412 10.436 25.4494C10.4114 25.4576 10.3868 25.4658 10.3704 25.474C10.3294 25.4904 10.2884 25.5068 10.2474 25.515C10.231 25.5232 10.2146 25.5314 10.19 25.5314C10.0752 25.5724 9.95223 25.6298 9.83743 25.679C9.82103 25.6872 9.80463 25.6954 9.78823 25.7036C9.74723 25.72 9.70623 25.7446 9.67343 25.761C9.64883 25.7692 9.63243 25.7856 9.60783 25.7938C9.57503 25.8102 9.54223 25.8348 9.50123 25.8512C9.47663 25.8676 9.46023 25.8758 9.43563 25.8922C9.40283 25.9086 9.37003 25.9332 9.33723 25.9496C9.31263 25.966 9.29623 25.9824 9.27163 25.9906C9.23883 26.0152 9.20603 26.0316 9.18143 26.0562C9.15683 26.0726 9.14043 26.089 9.11583 26.1054C9.10763 26.1136 9.09123 26.1218 9.08303 26.13H5.14703V10.058ZM6.56563 27.77H7.73823C7.58243 28.1062 7.45943 28.467 7.39383 28.836H6.55743L6.56563 27.77ZM11.748 32.444C10.2146 32.444 8.96003 31.1894 8.96003 29.656C8.96003 28.8606 9.30443 28.098 9.90303 27.565C10.4114 27.114 11.0674 26.868 11.748 26.868C12.4286 26.868 13.0846 27.114 13.593 27.565C14.1916 28.098 14.536 28.8606 14.536 29.656C14.536 31.1894 13.2814 32.444 11.748 32.444ZM34.5932 32.444C33.0598 32.444 31.8052 31.1894 31.8052 29.656C31.8052 28.1226 33.0598 26.868 34.5932 26.868C36.1266 26.868 37.3812 28.1226 37.3812 29.656C37.3812 31.1894 36.1266 32.444 34.5932 32.444ZM38.9392 28.836C38.5538 26.786 36.7498 25.228 34.585 25.228C32.4202 25.228 30.6162 26.786 30.2308 28.836H16.094C16.0202 28.467 15.9054 28.1062 15.7496 27.77H29.501V14.076H35.7412L36.1102 14.896H30.567V23.752H39.628V28.836H38.9392Z" fill="white"/>
    <path d="M16.4958 24.777C20.194 24.777 23.1952 21.7676 23.1952 18.0694C23.1952 14.3712 20.194 11.37 16.4958 11.37C12.7976 11.37 9.78823 14.3794 9.78823 18.0776C9.78823 21.7758 12.7976 24.777 16.4958 24.777ZM16.4958 13.01C19.2838 13.01 21.5552 15.2814 21.5552 18.0776C21.5552 20.8738 19.2838 23.1452 16.4958 23.1452C13.7078 23.1452 11.4282 20.8738 11.4282 18.0776C11.4282 15.2814 13.7078 13.01 16.4958 13.01Z" fill="white"/>
    <path d="M19.8906 19.242L17.3158 17.6184V13.748H15.6758V18.5286L19.0214 20.636L19.8906 19.242Z" fill="white"/>
  </g>
  <defs>
    <clipPath id="clip0_1_39">
      <rect width="41" height="41" fill="white" transform="translate(0.965027 0.299988)"/>
    </clipPath>
  </defs>
</svg>