<svg xmlns="http://www.w3.org/2000/svg" width="42" height="42" viewBox="0 0 42 42" fill="none">
  <path d="M21.131 38.6924L20.7456 38.5038C20.6144 38.4382 17.5476 36.9048 14.4234 34.7892C9.99544 31.7798 7.83884 29.246 7.83884 27.0484V8.8116L8.22424 8.5738C8.39644 8.4672 12.6194 5.8924 21.1064 5.8924C29.5934 5.8924 33.8164 8.459 33.9886 8.5738L34.374 8.8116V27.0402C34.374 28.9672 32.2256 31.419 27.7976 34.535C24.6816 36.7326 21.623 38.4136 21.4918 38.4874L21.131 38.6924ZM9.47884 9.7546V27.0402C9.47884 27.934 10.2414 29.9512 15.3336 33.4198C17.7362 35.0516 20.1716 36.3636 21.09 36.8392C22.0084 36.3226 24.452 34.8958 26.871 33.1902C32.1682 29.4592 32.7422 27.647 32.7422 27.0402V9.7546C31.5614 9.1642 27.6828 7.53239 21.1146 7.53239C14.5464 7.53239 10.6678 9.1724 9.47884 9.7546Z" fill="white"/>
  <path d="M20.0896 26.5072L14.5546 22.0956L15.8256 20.4884L19.8354 23.6782L27.3548 15.0108L28.9046 16.3556L20.0896 26.5072Z" fill="white"/>
</svg>